<svg width="198" height="15" viewBox="0 0 198 15" fill="none" xmlns="http://www.w3.org/2000/svg">
<path fill-rule="evenodd" clip-rule="evenodd" d="M195.918 0.493757C195.365 0.336458 194.791 0.264687 194.216 0.280931H180.195V2.83485H194.965V12.0289H182.766V6.06981H180.212V14.4977H194.045C194.616 14.5075 195.186 14.4618 195.748 14.3615C196.135 14.318 196.501 14.1644 196.804 13.9188C197.08 13.7016 197.282 13.4042 197.382 13.0675C197.541 12.5349 197.613 11.9801 197.595 11.4245V3.64359C197.604 3.10968 197.559 2.57624 197.459 2.05165C197.361 1.68301 197.184 1.34019 196.94 1.04711C196.662 0.774211 196.314 0.582812 195.935 0.493757H195.918ZM146.716 14.4892V11.9353H152.837V2.82633H146.716V0.272417H152.096C152.672 0.25509 153.246 0.326882 153.799 0.485244C154.182 0.564299 154.532 0.757169 154.804 1.03859C155.061 1.32146 155.237 1.66847 155.314 2.04313C155.429 2.56568 155.477 3.10047 155.459 3.63507V11.1095C155.473 11.6481 155.401 12.1854 155.246 12.7015C155.136 13.0939 154.914 13.4459 154.608 13.7145C154.311 13.991 153.947 14.1848 153.552 14.2764C152.998 14.4279 152.424 14.4996 151.85 14.4892H146.716ZM161.615 15V3.24347L162.176 3.85641L172.452 14.8638C172.716 14.8638 172.971 14.8638 173.201 14.8638C173.452 14.8452 173.702 14.814 173.95 14.7701C174.15 14.7217 174.346 14.6591 174.537 14.5829C174.689 14.4996 174.83 14.3966 174.955 14.2764C175.077 14.1532 175.18 14.0126 175.261 13.8593C175.356 13.6563 175.433 13.4455 175.491 13.2293C175.546 12.9737 175.586 12.715 175.61 12.4546C175.633 12.1372 175.633 11.8185 175.61 11.5011V0.119182H173.056V11.7565L172.494 11.1691L162.245 0.255391C161.964 0.255391 161.708 0.255391 161.47 0.255391C161.219 0.271352 160.968 0.302625 160.721 0.349035C160.522 0.393521 160.329 0.456216 160.142 0.536322C159.989 0.619599 159.847 0.719529 159.716 0.834279C159.601 0.964712 159.502 1.10747 159.418 1.25993C159.324 1.46418 159.245 1.67467 159.18 1.8899C159.127 2.14557 159.09 2.4043 159.069 2.66458C159.025 2.98035 159.008 3.29935 159.018 3.61805V15H161.615ZM146.716 0.280931V2.83485H140.57V11.9438H146.716V14.4977H141.464C140.889 14.507 140.316 14.4353 139.761 14.2849C139.378 14.1875 139.027 13.9941 138.739 13.723C138.463 13.4467 138.268 13.0989 138.178 12.7185C138.032 12.201 137.969 11.6638 137.99 11.1266V3.64359C137.975 3.11206 138.053 2.58198 138.22 2.07718C138.34 1.68761 138.568 1.33959 138.876 1.07264C139.182 0.783323 139.562 0.583167 139.974 0.493757C140.514 0.341453 141.073 0.269737 141.634 0.280931H146.716ZM46.2225 8.85357V6.29966H51.492V2.85187H46.2225V0.255391H50.7088C51.0323 0.255391 51.3388 0.255391 51.6197 0.255391C51.8627 0.271291 52.1044 0.302568 52.3434 0.349035C52.5499 0.39365 52.7522 0.456319 52.9478 0.536322C53.262 0.691313 53.5164 0.945663 53.6714 1.25993C53.7564 1.46492 53.8275 1.67538 53.8842 1.8899C53.9587 2.14217 54.0044 2.40205 54.0204 2.66458C54.0204 2.94552 54.0715 3.26901 54.0715 3.61805V15H51.492V8.85357H46.2225ZM61.1759 14.8808V3.1328L61.7378 3.73723L72.0216 14.7446C72.2769 14.7446 72.5323 14.7446 72.7707 14.7446C73.0193 14.7292 73.2667 14.6979 73.5113 14.651C73.7127 14.6077 73.9095 14.545 74.0987 14.4637C74.413 14.3087 74.6674 14.0543 74.8223 13.7401C74.9162 13.5358 74.9959 13.3253 75.0607 13.1101C75.1137 12.8544 75.1506 12.5957 75.1714 12.3354C75.2157 12.0196 75.2328 11.7006 75.2225 11.382V0H72.626V11.6373L72.0641 11.0499L61.8485 0.136209C61.5675 0.136209 61.3121 0.136209 61.0823 0.136209C60.8524 0.136209 60.563 0.187286 60.3331 0.229851C60.1331 0.278282 59.9369 0.340869 59.7457 0.417139C59.5937 0.500386 59.4535 0.603443 59.3286 0.72361C59.2065 0.846813 59.1032 0.987375 59.0221 1.14075C58.9275 1.34373 58.8506 1.5545 58.7923 1.77071C58.7369 2.02629 58.6971 2.285 58.6731 2.5454C58.6503 2.86281 58.6503 3.18145 58.6731 3.49886V14.8808H61.1759ZM102.444 5.83995V2.82633H112.532L114.864 0.229851H103.389C102.814 0.219466 102.241 0.29113 101.686 0.442678C101.295 0.543785 100.933 0.736352 100.631 1.00454C100.341 1.28839 100.133 1.64384 100.026 2.03462C99.8718 2.55659 99.8 3.09945 99.8133 3.64359V11.0755C99.8078 11.6096 99.8563 12.143 99.958 12.6674C100.053 13.0355 100.227 13.3784 100.469 13.672C100.748 13.9431 101.095 14.1342 101.473 14.2253C102.028 14.3725 102.602 14.4356 103.176 14.4126H114.813V11.8587H102.478V8.73439H109.288V6.18048H102.478V5.87401L102.444 5.83995ZM130.818 3.1328V6.28263H118.695V14.4892H121.317V8.85357H130.069C130.418 8.85357 130.75 8.85358 131.031 8.81101C131.312 8.76845 131.592 8.71737 131.822 8.66629C132.032 8.61394 132.235 8.53678 132.427 8.43644C132.598 8.36895 132.752 8.26427 132.878 8.12996C133 8.01901 133.096 7.88236 133.159 7.72985C133.244 7.54559 133.304 7.35095 133.338 7.15096C133.388 6.91268 133.42 6.67069 133.431 6.42735C133.431 6.14642 133.431 5.83995 133.431 5.51646V3.64359V3.33712C133.431 3.26901 133.431 3.17537 133.431 3.08172C133.41 2.72847 133.355 2.37796 133.27 2.03462C133.251 1.97886 133.229 1.92475 133.201 1.87287L133.133 1.68558C133.032 1.44322 132.888 1.22115 132.708 1.03008C132.575 0.907766 132.426 0.804609 132.265 0.72361C132.063 0.62761 131.852 0.55066 131.635 0.493757C131.405 0.442679 131.141 0.374574 130.843 0.332009C130.545 0.289443 130.23 0.255391 129.907 0.255391H116.363L118.695 2.80931H130.852V3.14132L130.818 3.1328ZM82.378 11.5863V2.91998H96.3138V0.323495H83.3144C82.7408 0.302764 82.1672 0.365859 81.6118 0.510783C81.2079 0.606526 80.8373 0.809455 80.5391 1.09818C80.2467 1.38078 80.0351 1.73641 79.9262 2.12826C79.7793 2.65161 79.7105 3.19378 79.7219 3.73723V11.1436C79.7117 11.6775 79.7573 12.2111 79.8581 12.7355C79.9492 13.1051 80.124 13.4487 80.3689 13.7401C80.6549 14.0075 80.9986 14.2056 81.3734 14.319C81.931 14.4516 82.5029 14.5146 83.076 14.5062H92.9086C93.4819 14.5177 94.0542 14.4547 94.6112 14.319C94.9896 14.2279 95.3366 14.0368 95.6158 13.7656C95.8766 13.4815 96.0611 13.1359 96.1521 12.7611C96.2741 12.2309 96.3284 11.6874 96.3138 11.1436V6.28263H87.9029V8.83655H93.2832V11.9012H82.378V11.5863ZM46.2225 0.255391V2.85187H40.9869V6.25709H41.2764H46.1884V8.81101H40.9869V14.9574H38.433V3.83087C38.433 3.48184 38.433 3.17537 38.5267 2.87741C38.5575 2.60839 38.603 2.34126 38.6629 2.07718C38.7239 1.86069 38.8037 1.6499 38.9012 1.44722C38.9824 1.29607 39.0826 1.15589 39.1992 1.03008C39.3842 0.838131 39.6075 0.687298 39.8547 0.587399L40.042 0.510783C40.1064 0.507123 40.1697 0.492735 40.2293 0.468217C40.5718 0.3735 40.9223 0.310802 41.2764 0.280931H41.5318C41.625 0.268312 41.7195 0.268312 41.8127 0.280931H46.231L46.2225 0.255391ZM2.60499 11.7565V2.98808H14.7531V0.434166H3.55846C3.23496 0.434166 2.90295 0.485243 2.62202 0.527808C2.35518 0.55833 2.09069 0.606679 1.83031 0.67253C1.61409 0.730874 1.40332 0.807777 1.20034 0.902383C1.0405 0.985544 0.891765 1.08851 0.757662 1.20885C0.580303 1.40216 0.436443 1.6237 0.332009 1.86436C0.315853 1.92898 0.293029 1.99174 0.263905 2.05165C0.235701 2.11193 0.21291 2.17461 0.1958 2.23893C0.103795 2.56758 0.0411203 2.90375 0.00851305 3.24347C-0.00283768 3.32822 -0.00283768 3.41411 0.00851305 3.49886V3.80533V11.2798C0.00851305 11.6118 0.00851305 11.9183 0.00851305 12.1907C0.0196809 12.4369 0.0510001 12.6817 0.102157 12.9228C0.134966 13.1323 0.198055 13.3359 0.289444 13.5272C0.348393 13.6819 0.444945 13.8194 0.570374 13.9274C0.694265 14.058 0.845405 14.1597 1.01305 14.2253C1.20647 14.3239 1.40887 14.4037 1.61748 14.4637L2.39217 14.5999C2.69012 14.5999 3.02213 14.651 3.37117 14.651H14.7531V12.08H2.60499V11.7565ZM20.8831 0.493757H18.2866V14.6765H20.8831V8.9983H31.286V14.6765H33.8399V0.493757H31.286V6.45289H20.8831V0.493757Z" fill="#00205B"/>
</svg>
